<svg width="24" height="24" viewBox="0 0 24 24" fill="none" xmlns="http://www.w3.org/2000/svg">
<g clip-path="url(#clip0_4215_646)">
<path d="M0.045 18.02C0.117 17.904 0.232 17.896 0.393 17.998C4.029 20.108 7.987 21.164 12.263 21.164C15.115 21.164 17.931 20.631 20.71 19.569L21.025 19.429C21.163 19.369 21.259 19.329 21.318 19.299C21.544 19.211 21.708 19.253 21.843 19.429C21.963 19.603 21.933 19.765 21.723 19.909C21.467 20.099 21.123 20.319 20.717 20.563C19.473 21.306 18.077 21.879 16.532 22.289C12.9132 23.2666 9.07699 23.0645 5.581 21.712C3.58479 20.9299 1.74552 19.7952 0.151 18.362C0.051 18.288 0 18.212 0 18.142C0 18.095 0.021 18.052 0.051 18.012L0.045 18.02ZM19.525 18.391C19.555 18.331 19.6 18.281 19.657 18.221C20.019 17.978 20.371 17.811 20.707 17.721C21.2349 17.587 21.775 17.5066 22.319 17.481C22.459 17.469 22.599 17.481 22.729 17.511C23.379 17.571 23.779 17.679 23.901 17.841C23.964 17.931 24 18.069 24 18.231V18.381C24 18.891 23.851 19.491 23.576 20.181C23.298 20.871 22.912 21.429 22.42 21.861C22.347 21.921 22.28 21.951 22.223 21.951C22.193 21.951 22.163 21.951 22.133 21.939C22.043 21.895 22.026 21.819 22.069 21.699C22.609 20.439 22.875 19.556 22.875 19.059C22.875 18.909 22.845 18.789 22.788 18.715C22.643 18.549 22.238 18.458 21.564 18.458C21.321 18.458 21.031 18.474 20.694 18.504C20.331 18.549 19.994 18.594 19.694 18.639C19.604 18.639 19.546 18.625 19.514 18.595C19.484 18.565 19.478 18.548 19.494 18.518C19.494 18.501 19.5 18.488 19.514 18.455V18.395L19.525 18.391Z" fill="#FF9900"/>
<path d="M6.60989 11.802C6.60989 10.797 6.85689 9.939 7.35289 9.225C7.84789 8.515 8.52289 7.975 9.39289 7.61C10.1889 7.275 11.1489 7.035 12.3049 6.89C12.6949 6.844 13.3379 6.787 14.2249 6.716V6.346C14.2249 5.416 14.1199 4.788 13.9249 4.471C13.6229 4.041 13.1449 3.821 12.4849 3.821H12.3029C11.8229 3.867 11.4069 4.017 11.0569 4.281C10.7069 4.551 10.4819 4.911 10.3819 5.377C10.3219 5.677 10.1759 5.842 9.94689 5.887L7.42689 5.572C7.17889 5.512 7.05489 5.392 7.05489 5.182C7.05489 5.136 7.06189 5.092 7.07689 5.032C7.32389 3.742 7.93189 2.782 8.89689 2.152C9.87289 1.536 10.9969 1.177 12.2869 1.102H12.8269C14.4769 1.102 15.7839 1.536 16.7149 2.392C16.8499 2.542 16.9849 2.692 17.1199 2.872C17.2399 3.037 17.3439 3.186 17.4029 3.322C17.4779 3.456 17.5529 3.652 17.5979 3.892C17.6579 4.146 17.7029 4.312 17.7329 4.402C17.7629 4.506 17.7949 4.702 17.8089 5.017C17.8189 5.33 17.8289 5.51 17.8289 5.57V10.85C17.8289 11.226 17.8889 11.57 17.9939 11.886C18.0989 12.199 18.2039 12.426 18.3089 12.56L18.8189 13.234C18.9089 13.37 18.9549 13.49 18.9549 13.594C18.9549 13.714 18.8949 13.82 18.7749 13.908C17.5749 14.958 16.9149 15.528 16.8119 15.618C16.6469 15.753 16.4369 15.768 16.1819 15.663C15.9968 15.5083 15.8212 15.3426 15.6559 15.167L15.3459 14.82C15.2363 14.683 15.1306 14.5429 15.0289 14.4L14.7289 13.965C13.9189 14.851 13.1259 15.405 12.3289 15.63C11.8349 15.78 11.2359 15.857 10.4989 15.857C9.38889 15.857 8.45889 15.514 7.73889 14.823C7.01889 14.133 6.65889 13.158 6.65889 11.883L6.60889 11.807L6.60989 11.802ZM10.3629 11.364C10.3629 11.93 10.5029 12.384 10.7879 12.728C11.0729 13.068 11.4629 13.24 11.9429 13.24C11.9879 13.24 12.0489 13.233 12.1379 13.22C12.2279 13.204 12.2719 13.197 12.3039 13.197C12.9179 13.037 13.3839 12.644 13.7279 12.019C13.8929 11.739 14.0129 11.439 14.0879 11.109C14.1779 10.789 14.2079 10.519 14.2229 10.309C14.2379 10.114 14.2379 9.769 14.2379 9.304V8.764C13.3979 8.764 12.7539 8.824 12.3179 8.944C11.0429 9.304 10.3979 10.114 10.3979 11.374L10.3629 11.354V11.364Z" fill="black"/>
</g>
<defs>
<clipPath id="clip0_4215_646">
<rect width="24" height="24" fill="white"/>
</clipPath>
</defs>
</svg>
